<svg xmlns="http://www.w3.org/2000/svg" viewBox="0 0 100 100" width="100" height="100" fill="none" stroke-linecap="round" stroke-linejoin="round"><title>Cáo</title><defs><linearGradient id="fox-fur" x1="0" y1="0" x2="0" y2="1"><stop offset="0%" stop-color="#ffa56c"/><stop offset="55%" stop-color="#ff8c42"/><stop offset="100%" stop-color="#d67637"/></linearGradient><filter id="fox-shadow" x="-30%" y="-30%" width="160%" height="160%"><feDropShadow dx="0" dy="1.6" stdDeviation="2.4" flood-color="#5b4636" flood-opacity="0.25"/></filter></defs><g filter="url(#fox-shadow)"><path d="M24 76 C4 76 0 56 12 46 C19 58 28 64 35 68 Z" fill="#f4762a" stroke="#5b4636" stroke-width="3"/><path d="M12 46 C5 50 4 58 9 63 C15 60 17 53 17 49 Z" fill="#fff3e2" stroke="#5b4636" stroke-width="2"/><path d="M30 92 C26 70 32 56 50 56 C68 56 74 70 70 92 Z" fill="url(#fox-fur)" stroke="#5b4636" stroke-width="3"/><path d="M40 90 C38 74 43 66 50 66 C57 66 62 74 60 90 Z" fill="#fff3e2"/><ellipse cx="41" cy="91" rx="6" ry="4" fill="#f4762a" stroke="#5b4636" stroke-width="2"/><ellipse cx="59" cy="91" rx="6" ry="4" fill="#f4762a" stroke="#5b4636" stroke-width="2"/><path d="M30 66 Q20 74 24 84" fill="none" stroke="#5b4636" stroke-width="11"/><path d="M30 66 Q20 74 24 84" fill="none" stroke="url(#fox-fur)" stroke-width="8"/><circle cx="24" cy="84" r="5.5" fill="#fff3e2" stroke="#5b4636" stroke-width="2"/><path d="M70 66 Q80 74 76 84" fill="none" stroke="#5b4636" stroke-width="11"/><path d="M70 66 Q80 74 76 84" fill="none" stroke="url(#fox-fur)" stroke-width="8"/><circle cx="76" cy="84" r="5.5" fill="#fff3e2" stroke="#5b4636" stroke-width="2"/><path d="M30 30 C26 14 30 9 38 14 C42 18 43 26 42 32 Z" fill="url(#fox-fur)" stroke="#5b4636" stroke-width="3"/><path d="M70 30 C74 14 70 9 62 14 C58 18 57 26 58 32 Z" fill="url(#fox-fur)" stroke="#5b4636" stroke-width="3"/><path d="M33 27 C31 18 33 15 37 18 C39 21 40 25 39 29 Z" fill="#fff3e2"/><path d="M67 27 C69 18 67 15 63 18 C61 21 60 25 61 29 Z" fill="#fff3e2"/><path d="M50 18 C68 18 76 30 76 42 C76 56 64 64 50 64 C36 64 24 56 24 42 C24 30 32 18 50 18 Z" fill="url(#fox-fur)" stroke="#5b4636" stroke-width="3"/><path d="M50 36 C62 36 66 46 64 53 C61 60 55 62 50 62 C45 62 39 60 36 53 C34 46 38 36 50 36 Z" fill="#fff3e2"/><circle cx="35" cy="49" r="4" fill="#ffb3a7" opacity="0.8"/><circle cx="65" cy="49" r="4" fill="#ffb3a7" opacity="0.8"/><circle cx="40" cy="41" r="6.4" fill="#ffffff" stroke="#5b4636" stroke-width="2"/><circle cx="40" cy="41.6" r="4" fill="#5b4636"/><circle cx="41.4" cy="40" r="1.4" fill="#ffffff"/><circle cx="60" cy="41" r="6.4" fill="#ffffff" stroke="#5b4636" stroke-width="2"/><circle cx="60" cy="41.6" r="4" fill="#5b4636"/><circle cx="61.4" cy="40" r="1.4" fill="#ffffff"/><path d="M50 50 C53 50 54 52 53 54 C52 56 48 56 47 54 C46 52 47 50 50 50 Z" fill="#5b4636"/><path d="M44 56 C47 60 53 60 56 56" fill="none" stroke="#5b4636" stroke-width="2"/></g></svg>