<svg xmlns="http://www.w3.org/2000/svg" width="1240" height="1120" viewBox="0 0 1240 1120" font-family="'Baloo 2','Comic Sans MS',system-ui,sans-serif"><rect width="1240" height="1120" fill="#fef6ec"/><rect width="1240" height="110" fill="#bfeaff"/><text x="40" y="54" font-size="38" font-weight="800" fill="#5b4636">KiddyHub — Bộ nhận diện đồ hoạ (B2)</text><text x="40" y="88" font-size="18" fill="#8a7563">8 avatar · 6 đảo · 15 biểu tượng trò · nền bản đồ · sao &amp; vườn — tất cả vector dựng trong mã</text><text x="40" y="150" font-size="24" font-weight="800" fill="#5b4636">Avatar (8 con vật)</text><rect x="40" y="164" width="132" height="132" rx="22" fill="#fff" stroke="#5b4636" stroke-width="2" opacity="0.7"/><svg x="46" y="170" width="120" height="120" viewBox="0 0 100 100"><title>Mèo</title><path d="M28 30 L24 12 L42 24 Z" fill="#ffc266" stroke="#5b4636" stroke-width="3"/><path d="M72 30 L76 12 L58 24 Z" fill="#ffc266" stroke="#5b4636" stroke-width="3"/><path d="M30 26 L28 17 L37 23 Z" fill="#ff9eb5"/><path d="M70 26 L72 17 L63 23 Z" fill="#ff9eb5"/><circle cx="50" cy="52" r="32" fill="#ffc266" stroke="#5b4636" stroke-width="3"/><ellipse cx="50" cy="60" rx="20" ry="16" fill="#ffe2b0"/><circle cx="39" cy="48" r="7" fill="#ffffff" stroke="#5b4636" stroke-width="2"/><circle cx="39" cy="48.6" r="4.2" fill="#5b4636"/><circle cx="40.6" cy="46.6" r="1.54" fill="#ffffff"/><circle cx="61" cy="48" r="7" fill="#ffffff" stroke="#5b4636" stroke-width="2"/><circle cx="61" cy="48.6" r="4.2" fill="#5b4636"/><circle cx="62.6" cy="46.6" r="1.54" fill="#ffffff"/><circle cx="33" cy="58" r="4.4" fill="#ffb3a7" opacity="0.75"/><circle cx="67" cy="58" r="4.4" fill="#ffb3a7" opacity="0.75"/><path d="M50 56 c2 0 3 1.6 2 3 c-1 1.4 -3 1.4 -4 0 c-1 -1.4 0 -3 2 -3 Z" fill="#e8757f"/><path d="M44 61 c3 4 9 4 12 0" fill="none" stroke="#5b4636" stroke-width="2"/><g stroke="#5b4636" stroke-width="2" fill="none"><path d="M30 56 H16"/><path d="M31 62 H18"/><path d="M70 56 H84"/><path d="M69 62 H82"/></g></svg><text x="106" y="310" text-anchor="middle" font-size="15" fill="#5b4636" font-weight="700">Mèo</text><rect x="190" y="164" width="132" height="132" rx="22" fill="#fff" stroke="#5b4636" stroke-width="2" opacity="0.7"/><svg x="196" y="170" width="120" height="120" viewBox="0 0 100 100"><title>Cún</title><path d="M24 38 C12 36 10 58 22 66 C30 60 30 46 30 40 Z" fill="#c08850" stroke="#5b4636" stroke-width="3"/><path d="M76 38 C88 36 90 58 78 66 C70 60 70 46 70 40 Z" fill="#c08850" stroke="#5b4636" stroke-width="3"/><circle cx="50" cy="50" r="32" fill="#d9a066" stroke="#5b4636" stroke-width="3"/><path d="M36 36 C28 38 28 52 38 54 C46 52 46 38 36 36 Z" fill="#c08850" opacity="0.55"/><circle cx="39" cy="46" r="7" fill="#ffffff" stroke="#5b4636" stroke-width="2"/><circle cx="39" cy="46.6" r="4.2" fill="#5b4636"/><circle cx="40.6" cy="44.6" r="1.54" fill="#ffffff"/><circle cx="61" cy="46" r="7" fill="#ffffff" stroke="#5b4636" stroke-width="2"/><circle cx="61" cy="46.6" r="4.2" fill="#5b4636"/><circle cx="62.6" cy="44.6" r="1.54" fill="#ffffff"/><circle cx="31" cy="56" r="4.4" fill="#ffb3a7" opacity="0.75"/><circle cx="69" cy="56" r="4.4" fill="#ffb3a7" opacity="0.75"/><ellipse cx="50" cy="62" rx="17" ry="13" fill="#f3dcc0"/><path d="M50 56 c2 0 3 1.6 2 3 c-1 1.4 -3 1.4 -4 0 c-1 -1.4 0 -3 2 -3 Z" fill="#5b4636"/><path d="M44 61 c3 4 9 4 12 0" fill="none" stroke="#5b4636" stroke-width="2"/></svg><text x="256" y="310" text-anchor="middle" font-size="15" fill="#5b4636" font-weight="700">Cún</text><rect x="340" y="164" width="132" height="132" rx="22" fill="#fff" stroke="#5b4636" stroke-width="2" opacity="0.7"/><svg x="346" y="170" width="120" height="120" viewBox="0 0 100 100"><title>Gấu</title><circle cx="28" cy="28" r="13" fill="#b98b5e" stroke="#5b4636" stroke-width="3"/><circle cx="72" cy="28" r="13" fill="#b98b5e" stroke="#5b4636" stroke-width="3"/><circle cx="28" cy="28" r="6.5" fill="#e6cda8"/><circle cx="72" cy="28" r="6.5" fill="#e6cda8"/><circle cx="50" cy="52" r="32" fill="#b98b5e" stroke="#5b4636" stroke-width="3"/><ellipse cx="50" cy="60" rx="17" ry="14" fill="#e6cda8"/><circle cx="40" cy="47" r="7" fill="#ffffff" stroke="#5b4636" stroke-width="2"/><circle cx="40" cy="47.6" r="4.2" fill="#5b4636"/><circle cx="41.6" cy="45.6" r="1.54" fill="#ffffff"/><circle cx="60" cy="47" r="7" fill="#ffffff" stroke="#5b4636" stroke-width="2"/><circle cx="60" cy="47.6" r="4.2" fill="#5b4636"/><circle cx="61.6" cy="45.6" r="1.54" fill="#ffffff"/><circle cx="31" cy="57" r="4.4" fill="#ffb3a7" opacity="0.75"/><circle cx="69" cy="57" r="4.4" fill="#ffb3a7" opacity="0.75"/><path d="M50 55 c2 0 3 1.6 2 3 c-1 1.4 -3 1.4 -4 0 c-1 -1.4 0 -3 2 -3 Z" fill="#5b4636"/><path d="M44 60 c3 4 9 4 12 0" fill="none" stroke="#5b4636" stroke-width="2"/></svg><text x="406" y="310" text-anchor="middle" font-size="15" fill="#5b4636" font-weight="700">Gấu</text><rect x="490" y="164" width="132" height="132" rx="22" fill="#fff" stroke="#5b4636" stroke-width="2" opacity="0.7"/><svg x="496" y="170" width="120" height="120" viewBox="0 0 100 100"><title>Thỏ</title><path d="M38 32 C32 6 40 2 44 24 C45 30 44 34 42 36 Z" fill="#f4e3ef" stroke="#5b4636" stroke-width="3"/><path d="M62 32 C68 6 60 2 56 24 C55 30 56 34 58 36 Z" fill="#f4e3ef" stroke="#5b4636" stroke-width="3"/><path d="M39 30 C35 12 40 10 42 24 Z" fill="#ff9eb5"/><path d="M61 30 C65 12 60 10 58 24 Z" fill="#ff9eb5"/><circle cx="50" cy="56" r="30" fill="#f4e3ef" stroke="#5b4636" stroke-width="3"/><circle cx="40" cy="52" r="7" fill="#ffffff" stroke="#5b4636" stroke-width="2"/><circle cx="40" cy="52.6" r="4.2" fill="#5b4636"/><circle cx="41.6" cy="50.6" r="1.54" fill="#ffffff"/><circle cx="60" cy="52" r="7" fill="#ffffff" stroke="#5b4636" stroke-width="2"/><circle cx="60" cy="52.6" r="4.2" fill="#5b4636"/><circle cx="61.6" cy="50.6" r="1.54" fill="#ffffff"/><circle cx="32" cy="62" r="4.4" fill="#ffb3a7" opacity="0.75"/><circle cx="68" cy="62" r="4.4" fill="#ffb3a7" opacity="0.75"/><path d="M50 60 c2 0 3 1.4 2 2.8 c-1 1.2 -3 1.2 -4 0 c-1 -1.4 0 -2.8 2 -2.8 Z" fill="#e8757f"/><path d="M50 63 v4" stroke="#5b4636" stroke-width="2"/><rect x="46" y="67" width="4" height="6" rx="1.5" fill="#ffffff" stroke="#5b4636" stroke-width="1.4"/><rect x="50" y="67" width="4" height="6" rx="1.5" fill="#ffffff" stroke="#5b4636" stroke-width="1.4"/></svg><text x="556" y="310" text-anchor="middle" font-size="15" fill="#5b4636" font-weight="700">Thỏ</text><rect x="640" y="164" width="132" height="132" rx="22" fill="#fff" stroke="#5b4636" stroke-width="2" opacity="0.7"/><svg x="646" y="170" width="120" height="120" viewBox="0 0 100 100"><title>Cáo</title><path d="M24 76 C4 76 0 56 12 46 C19 58 28 64 35 68 Z" fill="#f4762a" stroke="#5b4636" stroke-width="3"/><path d="M12 46 C5 50 4 58 9 63 C15 60 17 53 17 49 Z" fill="#fff3e2" stroke="#5b4636" stroke-width="2"/><path d="M30 92 C26 70 32 56 50 56 C68 56 74 70 70 92 Z" fill="#ff8c42" stroke="#5b4636" stroke-width="3"/><path d="M40 90 C38 74 43 66 50 66 C57 66 62 74 60 90 Z" fill="#fff3e2"/><ellipse cx="41" cy="91" rx="6" ry="4" fill="#f4762a" stroke="#5b4636" stroke-width="2"/><ellipse cx="59" cy="91" rx="6" ry="4" fill="#f4762a" stroke="#5b4636" stroke-width="2"/><path d="M30 66 Q20 74 24 84" fill="none" stroke="#5b4636" stroke-width="11"/><path d="M30 66 Q20 74 24 84" fill="none" stroke="#ff8c42" stroke-width="8"/><circle cx="24" cy="84" r="5.5" fill="#fff3e2" stroke="#5b4636" stroke-width="2"/><path d="M70 66 Q80 74 76 84" fill="none" stroke="#5b4636" stroke-width="11"/><path d="M70 66 Q80 74 76 84" fill="none" stroke="#ff8c42" stroke-width="8"/><circle cx="76" cy="84" r="5.5" fill="#fff3e2" stroke="#5b4636" stroke-width="2"/><path d="M30 30 C26 14 30 9 38 14 C42 18 43 26 42 32 Z" fill="#ff8c42" stroke="#5b4636" stroke-width="3"/><path d="M70 30 C74 14 70 9 62 14 C58 18 57 26 58 32 Z" fill="#ff8c42" stroke="#5b4636" stroke-width="3"/><path d="M33 27 C31 18 33 15 37 18 C39 21 40 25 39 29 Z" fill="#fff3e2"/><path d="M67 27 C69 18 67 15 63 18 C61 21 60 25 61 29 Z" fill="#fff3e2"/><path d="M50 18 C68 18 76 30 76 42 C76 56 64 64 50 64 C36 64 24 56 24 42 C24 30 32 18 50 18 Z" fill="#ff8c42" stroke="#5b4636" stroke-width="3"/><path d="M50 36 C62 36 66 46 64 53 C61 60 55 62 50 62 C45 62 39 60 36 53 C34 46 38 36 50 36 Z" fill="#fff3e2"/><circle cx="35" cy="49" r="4" fill="#ffb3a7" opacity="0.8"/><circle cx="65" cy="49" r="4" fill="#ffb3a7" opacity="0.8"/><circle cx="40" cy="41" r="6.4" fill="#ffffff" stroke="#5b4636" stroke-width="2"/><circle cx="40" cy="41.6" r="4" fill="#5b4636"/><circle cx="41.4" cy="40" r="1.4" fill="#ffffff"/><circle cx="60" cy="41" r="6.4" fill="#ffffff" stroke="#5b4636" stroke-width="2"/><circle cx="60" cy="41.6" r="4" fill="#5b4636"/><circle cx="61.4" cy="40" r="1.4" fill="#ffffff"/><path d="M50 50 C53 50 54 52 53 54 C52 56 48 56 47 54 C46 52 47 50 50 50 Z" fill="#5b4636"/><path d="M44 56 C47 60 53 60 56 56" fill="none" stroke="#5b4636" stroke-width="2"/></svg><text x="706" y="310" text-anchor="middle" font-size="15" fill="#5b4636" font-weight="700">Cáo</text><rect x="790" y="164" width="132" height="132" rx="22" fill="#fff" stroke="#5b4636" stroke-width="2" opacity="0.7"/><svg x="796" y="170" width="120" height="120" viewBox="0 0 100 100"><title>Trúc</title><circle cx="28" cy="26" r="13" fill="#2f2a28" stroke="#5b4636" stroke-width="3"/><circle cx="72" cy="26" r="13" fill="#2f2a28" stroke="#5b4636" stroke-width="3"/><circle cx="50" cy="52" r="32" fill="#ffffff" stroke="#5b4636" stroke-width="3"/><path d="M40 40 C30 42 30 56 40 58 C48 56 48 42 40 40 Z" fill="#2f2a28"/><path d="M60 40 C70 42 70 56 60 58 C52 56 52 42 60 40 Z" fill="#2f2a28"/><circle cx="40" cy="49" r="6" fill="#ffffff" stroke="#5b4636" stroke-width="2"/><circle cx="40" cy="49.6" r="3.5999999999999996" fill="#5b4636"/><circle cx="41.6" cy="47.6" r="1.32" fill="#ffffff"/><circle cx="60" cy="49" r="6" fill="#ffffff" stroke="#5b4636" stroke-width="2"/><circle cx="60" cy="49.6" r="3.5999999999999996" fill="#5b4636"/><circle cx="61.6" cy="47.6" r="1.32" fill="#ffffff"/><circle cx="30" cy="60" r="4.4" fill="#ffb3a7" opacity="0.75"/><circle cx="70" cy="60" r="4.4" fill="#ffb3a7" opacity="0.75"/><path d="M50 60 c2 0 3 1.6 2 3 c-1 1.4 -3 1.4 -4 0 c-1 -1.4 0 -3 2 -3 Z" fill="#5b4636"/><path d="M44 65 c3 4 9 4 12 0" fill="none" stroke="#5b4636" stroke-width="2"/></svg><text x="856" y="310" text-anchor="middle" font-size="15" fill="#5b4636" font-weight="700">Trúc</text><rect x="940" y="164" width="132" height="132" rx="22" fill="#fff" stroke="#5b4636" stroke-width="2" opacity="0.7"/><svg x="946" y="170" width="120" height="120" viewBox="0 0 100 100"><title>Sư tử</title><g fill="#e7922f" stroke="#5b4636" stroke-width="2"><circle cx="83.0" cy="52.0" r="9"/><circle cx="78.6" cy="68.5" r="9"/><circle cx="66.5" cy="80.6" r="9"/><circle cx="50.0" cy="85.0" r="9"/><circle cx="33.5" cy="80.6" r="9"/><circle cx="21.4" cy="68.5" r="9"/><circle cx="17.0" cy="52.0" r="9"/><circle cx="21.4" cy="35.5" r="9"/><circle cx="33.5" cy="23.4" r="9"/><circle cx="50.0" cy="19.0" r="9"/><circle cx="66.5" cy="23.4" r="9"/><circle cx="78.6" cy="35.5" r="9"/></g><circle cx="32" cy="32" r="8" fill="#ffcf6e" stroke="#5b4636" stroke-width="2"/><circle cx="68" cy="32" r="8" fill="#ffcf6e" stroke="#5b4636" stroke-width="2"/><circle cx="50" cy="52" r="28" fill="#ffcf6e" stroke="#5b4636" stroke-width="3"/><ellipse cx="50" cy="60" rx="16" ry="13" fill="#ffe6ad"/><circle cx="41" cy="48" r="7" fill="#ffffff" stroke="#5b4636" stroke-width="2"/><circle cx="41" cy="48.6" r="4.2" fill="#5b4636"/><circle cx="42.6" cy="46.6" r="1.54" fill="#ffffff"/><circle cx="59" cy="48" r="7" fill="#ffffff" stroke="#5b4636" stroke-width="2"/><circle cx="59" cy="48.6" r="4.2" fill="#5b4636"/><circle cx="60.6" cy="46.6" r="1.54" fill="#ffffff"/><circle cx="33" cy="58" r="4.4" fill="#ffb3a7" opacity="0.75"/><circle cx="67" cy="58" r="4.4" fill="#ffb3a7" opacity="0.75"/><path d="M50 55 c2 0 3 1.6 2 3 c-1 1.4 -3 1.4 -4 0 c-1 -1.4 0 -3 2 -3 Z" fill="#5b4636"/><path d="M44 60 c3 4 9 4 12 0" fill="none" stroke="#5b4636" stroke-width="2"/></svg><text x="1006" y="310" text-anchor="middle" font-size="15" fill="#5b4636" font-weight="700">Sư tử</text><rect x="1090" y="164" width="132" height="132" rx="22" fill="#fff" stroke="#5b4636" stroke-width="2" opacity="0.7"/><svg x="1096" y="170" width="120" height="120" viewBox="0 0 100 100"><title>Ếch</title><circle cx="34" cy="30" r="14" fill="#8fd97a" stroke="#5b4636" stroke-width="3"/><circle cx="66" cy="30" r="14" fill="#8fd97a" stroke="#5b4636" stroke-width="3"/><path d="M18 50 C18 36 34 32 50 32 C66 32 82 36 82 50 C82 70 66 80 50 80 C34 80 18 70 18 50 Z" fill="#8fd97a" stroke="#5b4636" stroke-width="3"/><ellipse cx="50" cy="62" rx="22" ry="15" fill="#c4efb0"/><circle cx="34" cy="29" r="8" fill="#ffffff" stroke="#5b4636" stroke-width="2"/><circle cx="34" cy="29.6" r="4.8" fill="#5b4636"/><circle cx="35.6" cy="27.6" r="1.76" fill="#ffffff"/><circle cx="66" cy="29" r="8" fill="#ffffff" stroke="#5b4636" stroke-width="2"/><circle cx="66" cy="29.6" r="4.8" fill="#5b4636"/><circle cx="67.6" cy="27.6" r="1.76" fill="#ffffff"/><circle cx="30" cy="58" r="4.4" fill="#ffb3a7" opacity="0.75"/><circle cx="70" cy="58" r="4.4" fill="#ffb3a7" opacity="0.75"/><path d="M34 60 C42 72 58 72 66 60" fill="none" stroke="#5b4636" stroke-width="3"/><circle cx="44" cy="50" r="1.6" fill="#5b4636"/><circle cx="56" cy="50" r="1.6" fill="#5b4636"/></svg><text x="1156" y="310" text-anchor="middle" font-size="15" fill="#5b4636" font-weight="700">Ếch</text><text x="40" y="350" font-size="24" font-weight="800" fill="#5b4636">Đảo (6 nhóm)</text><rect x="40" y="364" width="182" height="162" rx="22" fill="#fff" stroke="#5b4636" stroke-width="2" opacity="0.7"/><svg x="46" y="370" width="170" height="150" viewBox="0 0 100 100"><title>Toán &amp; Con số</title><ellipse cx="50" cy="84" rx="40" ry="9" fill="#5b4636" opacity="0.10"/><ellipse cx="50" cy="74" rx="42" ry="18" fill="#ffe6b3" stroke="#5b4636" stroke-width="3"/><path d="M14 70 C14 48 30 36 50 36 C70 36 86 48 86 70 C72 78 60 80 50 80 C40 80 28 78 14 70 Z" fill="#ff8fab" stroke="#5b4636" stroke-width="3"/><path d="M16 68 C30 76 70 76 84 68 C72 74 60 76 50 76 C40 76 28 74 16 68 Z" fill="#d1758c" opacity="0.5"/><rect x="27.5" y="50" width="5" height="14" rx="2" fill="#a06a3c" stroke="#5b4636" stroke-width="2"/><circle cx="30" cy="44" r="10" fill="#06d6a0" stroke="#5b4636" stroke-width="3"/><circle cx="24" cy="48" r="6.5" fill="#06d6a0" stroke="#5b4636" stroke-width="2"/><circle cx="36" cy="48" r="6.5" fill="#06d6a0" stroke="#5b4636" stroke-width="2"/><g fill="#ffffff" stroke="#5b4636" stroke-width="2" opacity="0.95" transform="translate(66 22) scale(0.8)"><circle cx="0" cy="0" r="6"/><circle cx="8" cy="-2" r="7.5"/><circle cx="16" cy="1" r="6"/><rect x="-6" y="0" width="28" height="6" rx="3"/></g><g fill="#ffffff" stroke="#5b4636" stroke-width="2"><circle cx="56" cy="58" r="4"/><circle cx="66" cy="62" r="4"/><circle cx="60" cy="68" r="4"/></g><text x="50" y="54" text-anchor="middle" font-size="16" font-weight="800" fill="#ffffff" stroke="#5b4636" stroke-width="1" paint-order="stroke">123</text><g fill="none" stroke="#ffffff" stroke-width="2" opacity="0.9"><path d="M16 80 q4 -3 8 0 t8 0"/><path d="M68 80 q4 -3 8 0 t8 0"/></g></svg><text x="131" y="540" text-anchor="middle" font-size="15" fill="#5b4636" font-weight="700">Toán & Con số</text><rect x="238" y="364" width="182" height="162" rx="22" fill="#fff" stroke="#5b4636" stroke-width="2" opacity="0.7"/><svg x="244" y="370" width="170" height="150" viewBox="0 0 100 100"><title>Chữ cái</title><ellipse cx="50" cy="84" rx="40" ry="9" fill="#5b4636" opacity="0.10"/><ellipse cx="50" cy="74" rx="42" ry="18" fill="#ffe6b3" stroke="#5b4636" stroke-width="3"/><path d="M14 70 C14 48 30 36 50 36 C70 36 86 48 86 70 C72 78 60 80 50 80 C40 80 28 78 14 70 Z" fill="#7cc6fe" stroke="#5b4636" stroke-width="3"/><path d="M16 68 C30 76 70 76 84 68 C72 74 60 76 50 76 C40 76 28 74 16 68 Z" fill="#66a2d0" opacity="0.5"/><rect x="67.5" y="52" width="5" height="14" rx="2" fill="#a06a3c" stroke="#5b4636" stroke-width="2"/><circle cx="70" cy="46" r="10" fill="#06d6a0" stroke="#5b4636" stroke-width="3"/><circle cx="64" cy="50" r="6.5" fill="#06d6a0" stroke="#5b4636" stroke-width="2"/><circle cx="76" cy="50" r="6.5" fill="#06d6a0" stroke="#5b4636" stroke-width="2"/><g fill="#ffffff" stroke="#5b4636" stroke-width="2" opacity="0.95" transform="translate(26 20) scale(0.8)"><circle cx="0" cy="0" r="6"/><circle cx="8" cy="-2" r="7.5"/><circle cx="16" cy="1" r="6"/><rect x="-6" y="0" width="28" height="6" rx="3"/></g><rect x="40" y="46" width="20" height="22" rx="4" fill="#ffffff" stroke="#5b4636" stroke-width="3"/><text x="50" y="63" text-anchor="middle" font-size="18" font-weight="800" fill="#5b4636">A</text><rect x="48" y="64" width="4" height="8" fill="#a06a3c"/><g fill="none" stroke="#ffffff" stroke-width="2" opacity="0.9"><path d="M16 80 q4 -3 8 0 t8 0"/><path d="M68 80 q4 -3 8 0 t8 0"/></g></svg><text x="329" y="540" text-anchor="middle" font-size="15" fill="#5b4636" font-weight="700">Chữ cái</text><rect x="436" y="364" width="182" height="162" rx="22" fill="#fff" stroke="#5b4636" stroke-width="2" opacity="0.7"/><svg x="442" y="370" width="170" height="150" viewBox="0 0 100 100"><title>Giải đố</title><ellipse cx="50" cy="84" rx="40" ry="9" fill="#5b4636" opacity="0.10"/><ellipse cx="50" cy="74" rx="42" ry="18" fill="#ffe6b3" stroke="#5b4636" stroke-width="3"/><path d="M14 70 C14 48 30 36 50 36 C70 36 86 48 86 70 C72 78 60 80 50 80 C40 80 28 78 14 70 Z" fill="#ffb703" stroke="#5b4636" stroke-width="3"/><path d="M16 68 C30 76 70 76 84 68 C72 74 60 76 50 76 C40 76 28 74 16 68 Z" fill="#d19602" opacity="0.5"/><rect x="25.5" y="50" width="5" height="14" rx="2" fill="#a06a3c" stroke="#5b4636" stroke-width="2"/><circle cx="28" cy="44" r="10" fill="#06d6a0" stroke="#5b4636" stroke-width="3"/><circle cx="22" cy="48" r="6.5" fill="#06d6a0" stroke="#5b4636" stroke-width="2"/><circle cx="34" cy="48" r="6.5" fill="#06d6a0" stroke="#5b4636" stroke-width="2"/><g fill="#ffffff" stroke="#5b4636" stroke-width="2" opacity="0.95" transform="translate(70 20) scale(0.8)"><circle cx="0" cy="0" r="6"/><circle cx="8" cy="-2" r="7.5"/><circle cx="16" cy="1" r="6"/><rect x="-6" y="0" width="28" height="6" rx="3"/></g><path d="M44 48 h8 a4 4 0 0 1 8 0 h2 v8 a4 4 0 0 1 0 8 v6 h-18 v-6 a4 4 0 0 0 0 -8 z" fill="#ffffff" stroke="#5b4636" stroke-width="3"/><g fill="none" stroke="#ffffff" stroke-width="2" opacity="0.9"><path d="M16 80 q4 -3 8 0 t8 0"/><path d="M68 80 q4 -3 8 0 t8 0"/></g></svg><text x="527" y="540" text-anchor="middle" font-size="15" fill="#5b4636" font-weight="700">Giải đố</text><rect x="634" y="364" width="182" height="162" rx="22" fill="#fff" stroke="#5b4636" stroke-width="2" opacity="0.7"/><svg x="640" y="370" width="170" height="150" viewBox="0 0 100 100"><title>Trí nhớ</title><ellipse cx="50" cy="84" rx="40" ry="9" fill="#5b4636" opacity="0.10"/><ellipse cx="50" cy="74" rx="42" ry="18" fill="#ffe6b3" stroke="#5b4636" stroke-width="3"/><path d="M14 70 C14 48 30 36 50 36 C70 36 86 48 86 70 C72 78 60 80 50 80 C40 80 28 78 14 70 Z" fill="#b388ff" stroke="#5b4636" stroke-width="3"/><path d="M16 68 C30 76 70 76 84 68 C72 74 60 76 50 76 C40 76 28 74 16 68 Z" fill="#9370d1" opacity="0.5"/><rect x="67.5" y="52" width="5" height="14" rx="2" fill="#a06a3c" stroke="#5b4636" stroke-width="2"/><circle cx="70" cy="46" r="10" fill="#06d6a0" stroke="#5b4636" stroke-width="3"/><circle cx="64" cy="50" r="6.5" fill="#06d6a0" stroke="#5b4636" stroke-width="2"/><circle cx="76" cy="50" r="6.5" fill="#06d6a0" stroke="#5b4636" stroke-width="2"/><g fill="#ffffff" stroke="#5b4636" stroke-width="2" opacity="0.95" transform="translate(24 22) scale(0.8)"><circle cx="0" cy="0" r="6"/><circle cx="8" cy="-2" r="7.5"/><circle cx="16" cy="1" r="6"/><rect x="-6" y="0" width="28" height="6" rx="3"/></g><rect x="36" y="48" width="14" height="20" rx="3" fill="#ffffff" stroke="#5b4636" stroke-width="3"/><rect x="52" y="48" width="14" height="20" rx="3" fill="#ffd166" stroke="#5b4636" stroke-width="3"/><path d="M59 52 l1.6 3.4 l3.6 .4 l-2.7 2.5 l.7 3.6 l-3.2 -1.9 l-3.2 1.9 l.7 -3.6 l-2.7 -2.5 l3.6 -.4 z" fill="#ffffff" stroke="#5b4636" stroke-width="0.8"/><text x="43" y="62" text-anchor="middle" font-size="13" font-weight="800" fill="#5b4636">?</text><g fill="none" stroke="#ffffff" stroke-width="2" opacity="0.9"><path d="M16 80 q4 -3 8 0 t8 0"/><path d="M68 80 q4 -3 8 0 t8 0"/></g></svg><text x="725" y="540" text-anchor="middle" font-size="15" fill="#5b4636" font-weight="700">Trí nhớ</text><rect x="832" y="364" width="182" height="162" rx="22" fill="#fff" stroke="#5b4636" stroke-width="2" opacity="0.7"/><svg x="838" y="370" width="170" height="150" viewBox="0 0 100 100"><title>Hình &amp; Màu</title><ellipse cx="50" cy="84" rx="40" ry="9" fill="#5b4636" opacity="0.10"/><ellipse cx="50" cy="74" rx="42" ry="18" fill="#ffe6b3" stroke="#5b4636" stroke-width="3"/><path d="M14 70 C14 48 30 36 50 36 C70 36 86 48 86 70 C72 78 60 80 50 80 C40 80 28 78 14 70 Z" fill="#06d6a0" stroke="#5b4636" stroke-width="3"/><path d="M16 68 C30 76 70 76 84 68 C72 74 60 76 50 76 C40 76 28 74 16 68 Z" fill="#05af83" opacity="0.5"/><rect x="25.5" y="50" width="5" height="14" rx="2" fill="#a06a3c" stroke="#5b4636" stroke-width="2"/><circle cx="28" cy="44" r="10" fill="#05af83" stroke="#5b4636" stroke-width="3"/><circle cx="22" cy="48" r="6.5" fill="#05af83" stroke="#5b4636" stroke-width="2"/><circle cx="34" cy="48" r="6.5" fill="#05af83" stroke="#5b4636" stroke-width="2"/><g fill="#ffffff" stroke="#5b4636" stroke-width="2" opacity="0.95" transform="translate(70 20) scale(0.8)"><circle cx="0" cy="0" r="6"/><circle cx="8" cy="-2" r="7.5"/><circle cx="16" cy="1" r="6"/><rect x="-6" y="0" width="28" height="6" rx="3"/></g><path d="M40 48 l8 14 h-16 z" fill="#ff8fab" stroke="#5b4636" stroke-width="2"/><circle cx="62" cy="54" r="8" fill="#7cc6fe" stroke="#5b4636" stroke-width="2"/><rect x="46" y="60" width="14" height="10" rx="2" fill="#ffd166" stroke="#5b4636" stroke-width="2"/><g fill="none" stroke="#ffffff" stroke-width="2" opacity="0.9"><path d="M16 80 q4 -3 8 0 t8 0"/><path d="M68 80 q4 -3 8 0 t8 0"/></g></svg><text x="923" y="540" text-anchor="middle" font-size="15" fill="#5b4636" font-weight="700">Hình & Màu</text><rect x="1030" y="364" width="182" height="162" rx="22" fill="#fff" stroke="#5b4636" stroke-width="2" opacity="0.7"/><svg x="1036" y="370" width="170" height="150" viewBox="0 0 100 100"><title>Tiếng Anh</title><ellipse cx="50" cy="84" rx="40" ry="9" fill="#5b4636" opacity="0.10"/><ellipse cx="50" cy="74" rx="42" ry="18" fill="#ffe6b3" stroke="#5b4636" stroke-width="3"/><path d="M14 70 C14 48 30 36 50 36 C70 36 86 48 86 70 C72 78 60 80 50 80 C40 80 28 78 14 70 Z" fill="#ff7043" stroke="#5b4636" stroke-width="3"/><path d="M16 68 C30 76 70 76 84 68 C72 74 60 76 50 76 C40 76 28 74 16 68 Z" fill="#d15c37" opacity="0.5"/><path d="M72 66 C69 48 70 40 74 36" fill="none" stroke="#a06a3c" stroke-width="5"/><g fill="#06d6a0" stroke="#5b4636" stroke-width="2"><path d="M74 36 C60 30 54 38 56 42 C64 36 70 36 74 36 Z"/><path d="M74 36 C88 30 94 38 92 42 C84 36 78 36 74 36 Z"/><path d="M74 36 C68 22 78 20 80 24 C78 30 76 34 74 36 Z"/></g><g fill="#ffffff" stroke="#5b4636" stroke-width="2" opacity="0.95" transform="translate(24 20) scale(0.8)"><circle cx="0" cy="0" r="6"/><circle cx="8" cy="-2" r="7.5"/><circle cx="16" cy="1" r="6"/><rect x="-6" y="0" width="28" height="6" rx="3"/></g><circle cx="44" cy="58" r="11" fill="#7cc6fe" stroke="#5b4636" stroke-width="3"/><g fill="none" stroke="#ffffff" stroke-width="2"><path d="M44 47 V69"/><path d="M33 58 H55"/><path d="M36 51 Q44 56 52 51"/><path d="M36 65 Q44 60 52 65"/></g><g fill="none" stroke="#ffffff" stroke-width="2" opacity="0.9"><path d="M16 80 q4 -3 8 0 t8 0"/><path d="M68 80 q4 -3 8 0 t8 0"/></g></svg><text x="1121" y="540" text-anchor="middle" font-size="15" fill="#5b4636" font-weight="700">Tiếng Anh</text><text x="40" y="600" font-size="24" font-weight="800" fill="#5b4636">Biểu tượng trò (15)</text><rect x="40" y="614" width="122" height="122" rx="22" fill="#fff" stroke="#5b4636" stroke-width="2" opacity="0.7"/><svg x="46" y="620" width="110" height="110" viewBox="0 0 100 100"><title>counting-fun</title><rect x="10" y="10" width="80" height="80" rx="22" fill="#ff8fab" stroke="#5b4636" stroke-width="4"/><rect x="18" y="16" width="64" height="20" rx="14" fill="#ffffff" opacity="0.22"/><g fill="#ffffff" stroke="#5b4636" stroke-width="3"><circle cx="34" cy="44" r="8"/><circle cx="50" cy="44" r="8"/><circle cx="66" cy="44" r="8"/></g><text x="50" y="78" text-anchor="middle" font-size="26" font-weight="800" font-family="'Baloo 2','Comic Sans MS',system-ui,sans-serif" fill="#ffffff" stroke="#5b4636" stroke-width="1.4" paint-order="stroke">123</text></svg><text x="101" y="750" text-anchor="middle" font-size="15" fill="#5b4636" font-weight="700">counting-fun</text><rect x="190" y="614" width="122" height="122" rx="22" fill="#fff" stroke="#5b4636" stroke-width="2" opacity="0.7"/><svg x="196" y="620" width="110" height="110" viewBox="0 0 100 100"><title>match-quantity</title><rect x="10" y="10" width="80" height="80" rx="22" fill="#ff8fab" stroke="#5b4636" stroke-width="4"/><rect x="18" y="16" width="64" height="20" rx="14" fill="#ffffff" opacity="0.22"/><text x="50" y="60" text-anchor="middle" font-size="40" font-weight="800" font-family="'Baloo 2','Comic Sans MS',system-ui,sans-serif" fill="#ffffff" stroke="#5b4636" stroke-width="1.4" paint-order="stroke">3</text><g fill="#ffffff" stroke="#5b4636" stroke-width="2"><circle cx="64" cy="40" r="5"/><circle cx="76" cy="52" r="5"/><circle cx="64" cy="64" r="5"/></g><path d="M40 52 H56" stroke="#ffffff" stroke-width="3"/></svg><text x="251" y="750" text-anchor="middle" font-size="15" fill="#5b4636" font-weight="700">match-quantity</text><rect x="340" y="614" width="122" height="122" rx="22" fill="#fff" stroke="#5b4636" stroke-width="2" opacity="0.7"/><svg x="346" y="620" width="110" height="110" viewBox="0 0 100 100"><title>more-less</title><rect x="10" y="10" width="80" height="80" rx="22" fill="#ff8fab" stroke="#5b4636" stroke-width="4"/><rect x="18" y="16" width="64" height="20" rx="14" fill="#ffffff" opacity="0.22"/><g stroke="#ffffff" stroke-width="3" fill="none"><path d="M50 26 V70"/><path d="M30 38 H70"/></g><circle cx="50" cy="24" r="4" fill="#ffffff"/><path d="M22 38 l-8 16 h16 z" fill="#ffffff" stroke="#5b4636" stroke-width="2"/><path d="M78 38 l-8 16 h16 z" fill="#ffffff" stroke="#5b4636" stroke-width="2"/><rect x="38" y="70" width="24" height="8" rx="3" fill="#ffffff"/></svg><text x="401" y="750" text-anchor="middle" font-size="15" fill="#5b4636" font-weight="700">more-less</text><rect x="490" y="614" width="122" height="122" rx="22" fill="#fff" stroke="#5b4636" stroke-width="2" opacity="0.7"/><svg x="496" y="620" width="110" height="110" viewBox="0 0 100 100"><title>letter-spotting</title><rect x="10" y="10" width="80" height="80" rx="22" fill="#7cc6fe" stroke="#5b4636" stroke-width="4"/><rect x="18" y="16" width="64" height="20" rx="14" fill="#ffffff" opacity="0.22"/><text x="50" y="70" text-anchor="middle" font-size="56" font-weight="800" font-family="'Baloo 2','Comic Sans MS',system-ui,sans-serif" fill="#ffffff" stroke="#5b4636" stroke-width="1.4" paint-order="stroke">A</text></svg><text x="551" y="750" text-anchor="middle" font-size="15" fill="#5b4636" font-weight="700">letter-spotting</text><rect x="640" y="614" width="122" height="122" rx="22" fill="#fff" stroke="#5b4636" stroke-width="2" opacity="0.7"/><svg x="646" y="620" width="110" height="110" viewBox="0 0 100 100"><title>first-letter</title><rect x="10" y="10" width="80" height="80" rx="22" fill="#7cc6fe" stroke="#5b4636" stroke-width="4"/><rect x="18" y="16" width="64" height="20" rx="14" fill="#ffffff" opacity="0.22"/><text x="50" y="66" text-anchor="middle" font-size="50" font-weight="800" font-family="'Baloo 2','Comic Sans MS',system-ui,sans-serif" fill="#ffffff" stroke="#5b4636" stroke-width="1.4" paint-order="stroke">A</text><g fill="#ffd166" stroke="#5b4636" stroke-width="1.2"><path d="M74 26 l2 5 l5 2 l-5 2 l-2 5 l-2 -5 l-5 -2 l5 -2 z"/></g></svg><text x="701" y="750" text-anchor="middle" font-size="15" fill="#5b4636" font-weight="700">first-letter</text><rect x="790" y="614" width="122" height="122" rx="22" fill="#fff" stroke="#5b4636" stroke-width="2" opacity="0.7"/><svg x="796" y="620" width="110" height="110" viewBox="0 0 100 100"><title>pattern-finder</title><rect x="10" y="10" width="80" height="80" rx="22" fill="#ffb703" stroke="#5b4636" stroke-width="4"/><rect x="18" y="16" width="64" height="20" rx="14" fill="#ffffff" opacity="0.22"/><circle cx="28" cy="50" r="9" fill="#ffffff" stroke="#5b4636" stroke-width="2"/><path d="M50 41 l9 18 h-18 z" fill="#ffd166" stroke="#5b4636" stroke-width="2"/><circle cx="72" cy="50" r="9" fill="#ffffff" stroke="#5b4636" stroke-width="2"/><path d="M40 72 q10 8 20 0" fill="none" stroke="#ffffff" stroke-width="2"/></svg><text x="851" y="750" text-anchor="middle" font-size="15" fill="#5b4636" font-weight="700">pattern-finder</text><rect x="940" y="614" width="122" height="122" rx="22" fill="#fff" stroke="#5b4636" stroke-width="2" opacity="0.7"/><svg x="946" y="620" width="110" height="110" viewBox="0 0 100 100"><title>odd-one-out</title><rect x="10" y="10" width="80" height="80" rx="22" fill="#ffb703" stroke="#5b4636" stroke-width="4"/><rect x="18" y="16" width="64" height="20" rx="14" fill="#ffffff" opacity="0.22"/><g fill="#ffffff" stroke="#5b4636" stroke-width="2"><circle cx="36" cy="38" r="6"/><circle cx="58" cy="38" r="6"/><rect x="30" y="56" width="12" height="12" rx="3"/></g><circle cx="62" cy="62" r="13" fill="none" stroke="#ffd166" stroke-width="3"/><path d="M71 71 l10 10" stroke="#ffd166" stroke-width="4"/></svg><text x="1001" y="750" text-anchor="middle" font-size="15" fill="#5b4636" font-weight="700">odd-one-out</text><rect x="1090" y="614" width="122" height="122" rx="22" fill="#fff" stroke="#5b4636" stroke-width="2" opacity="0.7"/><svg x="1096" y="620" width="110" height="110" viewBox="0 0 100 100"><title>sorting</title><rect x="10" y="10" width="80" height="80" rx="22" fill="#ffb703" stroke="#5b4636" stroke-width="4"/><rect x="18" y="16" width="64" height="20" rx="14" fill="#ffffff" opacity="0.22"/><g fill="#ffffff" stroke="#5b4636" stroke-width="2"><circle cx="36" cy="32" r="6"/><rect x="58" y="26" width="12" height="12" rx="2"/></g><path d="M24 52 h24 l-3 22 h-18 z" fill="#ffffff" stroke="#5b4636" stroke-width="3"/><path d="M52 52 h24 l-3 22 h-18 z" fill="#ffd166" stroke="#5b4636" stroke-width="3"/></svg><text x="1151" y="750" text-anchor="middle" font-size="15" fill="#5b4636" font-weight="700">sorting</text><rect x="40" y="782" width="122" height="122" rx="22" fill="#fff" stroke="#5b4636" stroke-width="2" opacity="0.7"/><svg x="46" y="788" width="110" height="110" viewBox="0 0 100 100"><title>memory-match</title><rect x="10" y="10" width="80" height="80" rx="22" fill="#b388ff" stroke="#5b4636" stroke-width="4"/><rect x="18" y="16" width="64" height="20" rx="14" fill="#ffffff" opacity="0.22"/><rect x="22" y="32" width="26" height="36" rx="5" fill="#ffffff" stroke="#5b4636" stroke-width="3"/><rect x="52" y="32" width="26" height="36" rx="5" fill="#ffd166" stroke="#5b4636" stroke-width="3"/><path d="M65 40 l2.4 5 l5.4 .6 l-4 3.8 l1 5.4 l-4.8 -2.8 l-4.8 2.8 l1 -5.4 l-4 -3.8 l5.4 -.6 z" fill="#ffffff" stroke="#5b4636" stroke-width="1"/><text x="35" y="56" text-anchor="middle" font-size="20" font-weight="800" fill="#5b4636">?</text></svg><text x="101" y="918" text-anchor="middle" font-size="15" fill="#5b4636" font-weight="700">memory-match</text><rect x="190" y="782" width="122" height="122" rx="22" fill="#fff" stroke="#5b4636" stroke-width="2" opacity="0.7"/><svg x="196" y="788" width="110" height="110" viewBox="0 0 100 100"><title>jigsaw</title><rect x="10" y="10" width="80" height="80" rx="22" fill="#06d6a0" stroke="#5b4636" stroke-width="4"/><rect x="18" y="16" width="64" height="20" rx="14" fill="#ffffff" opacity="0.22"/><path d="M32 34 h14 a6 6 0 0 1 12 0 h14 v14 a6 6 0 0 1 0 12 v14 h-14 a6 6 0 0 0 -12 0 h-14 v-14 a6 6 0 0 0 0 -12 z" fill="#ffffff" stroke="#5b4636" stroke-width="3"/></svg><text x="251" y="918" text-anchor="middle" font-size="15" fill="#5b4636" font-weight="700">jigsaw</text><rect x="340" y="782" width="122" height="122" rx="22" fill="#fff" stroke="#5b4636" stroke-width="2" opacity="0.7"/><svg x="346" y="788" width="110" height="110" viewBox="0 0 100 100"><title>shapes-colors</title><rect x="10" y="10" width="80" height="80" rx="22" fill="#06d6a0" stroke="#5b4636" stroke-width="4"/><rect x="18" y="16" width="64" height="20" rx="14" fill="#ffffff" opacity="0.22"/><path d="M30 30 l12 22 h-24 z" fill="#ff8fab" stroke="#5b4636" stroke-width="2"/><circle cx="68" cy="40" r="13" fill="#7cc6fe" stroke="#5b4636" stroke-width="2"/><rect x="38" y="58" width="26" height="22" rx="4" fill="#ffd166" stroke="#5b4636" stroke-width="2"/></svg><text x="401" y="918" text-anchor="middle" font-size="15" fill="#5b4636" font-weight="700">shapes-colors</text><rect x="490" y="782" width="122" height="122" rx="22" fill="#fff" stroke="#5b4636" stroke-width="2" opacity="0.7"/><svg x="496" y="788" width="110" height="110" viewBox="0 0 100 100"><title>abc-english</title><rect x="10" y="10" width="80" height="80" rx="22" fill="#ff7043" stroke="#5b4636" stroke-width="4"/><rect x="18" y="16" width="64" height="20" rx="14" fill="#ffffff" opacity="0.22"/><text x="50" y="62" text-anchor="middle" font-size="30" font-weight="800" font-family="'Baloo 2','Comic Sans MS',system-ui,sans-serif" fill="#ffffff" stroke="#5b4636" stroke-width="1.4" paint-order="stroke">ABC</text></svg><text x="551" y="918" text-anchor="middle" font-size="15" fill="#5b4636" font-weight="700">abc-english</text><rect x="640" y="782" width="122" height="122" rx="22" fill="#fff" stroke="#5b4636" stroke-width="2" opacity="0.7"/><svg x="646" y="788" width="110" height="110" viewBox="0 0 100 100"><title>colors-english</title><rect x="10" y="10" width="80" height="80" rx="22" fill="#ff7043" stroke="#5b4636" stroke-width="4"/><rect x="18" y="16" width="64" height="20" rx="14" fill="#ffffff" opacity="0.22"/><path d="M50 26 C70 26 80 40 78 54 C76 64 66 62 64 70 C62 78 52 80 50 80 C32 80 20 66 20 50 C20 36 32 26 50 26 Z" fill="#ffffff" stroke="#5b4636" stroke-width="3"/><circle cx="36" cy="42" r="5" fill="#ff8fab"/><circle cx="52" cy="38" r="5" fill="#7cc6fe"/><circle cx="64" cy="48" r="5" fill="#06d6a0"/><circle cx="36" cy="60" r="5" fill="#ffd166"/></svg><text x="701" y="918" text-anchor="middle" font-size="15" fill="#5b4636" font-weight="700">colors-english</text><rect x="790" y="782" width="122" height="122" rx="22" fill="#fff" stroke="#5b4636" stroke-width="2" opacity="0.7"/><svg x="796" y="788" width="110" height="110" viewBox="0 0 100 100"><title>numbers-english</title><rect x="10" y="10" width="80" height="80" rx="22" fill="#ff7043" stroke="#5b4636" stroke-width="4"/><rect x="18" y="16" width="64" height="20" rx="14" fill="#ffffff" opacity="0.22"/><text x="50" y="64" text-anchor="middle" font-size="34" font-weight="800" font-family="'Baloo 2','Comic Sans MS',system-ui,sans-serif" fill="#ffffff" stroke="#5b4636" stroke-width="1.4" paint-order="stroke">123</text></svg><text x="851" y="918" text-anchor="middle" font-size="15" fill="#5b4636" font-weight="700">numbers-english</text><rect x="940" y="782" width="122" height="122" rx="22" fill="#fff" stroke="#5b4636" stroke-width="2" opacity="0.7"/><svg x="946" y="788" width="110" height="110" viewBox="0 0 100 100"><title>first-words</title><rect x="10" y="10" width="80" height="80" rx="22" fill="#ff7043" stroke="#5b4636" stroke-width="4"/><rect x="18" y="16" width="64" height="20" rx="14" fill="#ffffff" opacity="0.22"/><circle cx="50" cy="50" r="26" fill="#ffffff" stroke="#5b4636" stroke-width="3"/><g fill="none" stroke="#5b4636" stroke-width="2"><path d="M50 24 V76"/><path d="M24 50 H76"/><path d="M30 36 Q50 46 70 36"/><path d="M30 64 Q50 54 70 64"/></g><path d="M40 40 q6 4 0 10 q8 6 2 14" fill="#06d6a0" opacity="0.7"/></svg><text x="1001" y="918" text-anchor="middle" font-size="15" fill="#5b4636" font-weight="700">first-words</text><text x="40" y="980" font-size="24" font-weight="800" fill="#5b4636">Nền bản đồ</text><rect x="40" y="998" width="380" height="92" rx="22" fill="#fff" stroke="#5b4636" stroke-width="2"/><svg x="44" y="1002" width="372" height="84" viewBox="0 0 100 100" preserveAspectRatio="xMidYMid slice"><rect x="0" y="0" width="100" height="58" fill="#bfeaff"/><circle cx="82" cy="16" r="12" fill="#ffd166" opacity="0.55"/><circle cx="82" cy="16" r="7" fill="#ffd166"/><rect x="0" y="50" width="100" height="50" fill="#bfeaff"/><rect x="0" y="64" width="100" height="36" fill="#a6dcf7"/><rect x="0" y="80" width="100" height="20" fill="#8fcff0"/><g fill="#ffffff" stroke="#5b4636" stroke-width="2" opacity="0.95" transform="translate(20 14) scale(1.1)"><circle cx="0" cy="0" r="6"/><circle cx="8" cy="-2" r="7.5"/><circle cx="16" cy="1" r="6"/><rect x="-6" y="0" width="28" height="6" rx="3"/></g><g fill="#ffffff" stroke="#5b4636" stroke-width="2" opacity="0.95" transform="translate(54 10) scale(0.9)"><circle cx="0" cy="0" r="6"/><circle cx="8" cy="-2" r="7.5"/><circle cx="16" cy="1" r="6"/><rect x="-6" y="0" width="28" height="6" rx="3"/></g><g fill="#ffffff" stroke="#5b4636" stroke-width="2" opacity="0.95" transform="translate(38 30) scale(0.7)"><circle cx="0" cy="0" r="6"/><circle cx="8" cy="-2" r="7.5"/><circle cx="16" cy="1" r="6"/><rect x="-6" y="0" width="28" height="6" rx="3"/></g><g fill="#ffffff" opacity="0.55"><path d="M16 72 l1 2 l2 1 l-2 1 l-1 2 l-1 -2 l-2 -1 l2 -1 z"/><path d="M70 84 l1 2 l2 1 l-2 1 l-1 2 l-1 -2 l-2 -1 l2 -1 z"/><path d="M44 90 l1 2 l2 1 l-2 1 l-1 2 l-1 -2 l-2 -1 l2 -1 z"/></g></svg><text x="460" y="980" font-size="24" font-weight="800" fill="#5b4636">Sao thưởng &amp; vườn sao</text><rect x="460" y="992" width="96" height="96" rx="22" fill="#fff" stroke="#5b4636" stroke-width="2" opacity="0.7"/><svg x="466" y="998" width="84" height="84" viewBox="0 0 100 100"><title>Ngôi sao</title><path d="M50.00 12.00 L59.87 38.41 L88.04 39.64 L65.98 57.19 L73.51 84.36 L50.00 68.80 L26.49 84.36 L34.02 57.19 L11.96 39.64 L40.13 38.41 Z" fill="#ffd166" stroke="#5b4636" stroke-width="4"/><path d="M50.00 26.00 L55.92 41.85 L72.83 42.58 L59.59 53.11 L64.11 69.42 L50.00 60.08 L35.89 69.42 L40.41 53.11 L27.17 42.58 L44.08 41.85 Z" fill="#ffffff" opacity="0.25"/><circle cx="40" cy="38" r="4" fill="#ffffff" opacity="0.7"/></svg><text x="508" y="1102" text-anchor="middle" font-size="15" fill="#5b4636" font-weight="700">sao</text><rect x="560" y="992" width="96" height="96" rx="22" fill="#fff" stroke="#5b4636" stroke-width="2" opacity="0.7"/><svg x="566" y="998" width="84" height="84" viewBox="0 0 100 100"><title>flower</title><line x1="50" y1="56" x2="50" y2="84" stroke="#06d6a0" stroke-width="4"/><g fill="#ff8fab" stroke="#5b4636" stroke-width="2"><ellipse cx="50.0" cy="32.0" rx="8" ry="11" transform="rotate(0 50.0 32.0)"/><ellipse cx="63.3" cy="41.7" rx="8" ry="11" transform="rotate(72 63.3 41.7)"/><ellipse cx="58.2" cy="57.3" rx="8" ry="11" transform="rotate(144 58.2 57.3)"/><ellipse cx="41.8" cy="57.3" rx="8" ry="11" transform="rotate(216 41.8 57.3)"/><ellipse cx="36.7" cy="41.7" rx="8" ry="11" transform="rotate(288 36.7 41.7)"/></g><circle cx="50" cy="46" r="8" fill="#ffd166" stroke="#5b4636" stroke-width="2"/></svg><text x="608" y="1102" text-anchor="middle" font-size="15" fill="#5b4636" font-weight="700">flower</text><rect x="670" y="992" width="96" height="96" rx="22" fill="#fff" stroke="#5b4636" stroke-width="2" opacity="0.7"/><svg x="676" y="998" width="84" height="84" viewBox="0 0 100 100"><title>bush</title><g fill="#06d6a0" stroke="#5b4636" stroke-width="3"><circle cx="38" cy="64" r="14"/><circle cx="62" cy="64" r="14"/><circle cx="50" cy="54" r="16"/></g></svg><text x="718" y="1102" text-anchor="middle" font-size="15" fill="#5b4636" font-weight="700">bush</text><rect x="780" y="992" width="96" height="96" rx="22" fill="#fff" stroke="#5b4636" stroke-width="2" opacity="0.7"/><svg x="786" y="998" width="84" height="84" viewBox="0 0 100 100"><title>tree</title><rect x="46" y="58" width="8" height="26" rx="3" fill="#a06a3c" stroke="#5b4636" stroke-width="2"/><circle cx="50" cy="42" r="20" fill="#06d6a0" stroke="#5b4636" stroke-width="3"/><circle cx="34" cy="50" r="12" fill="#06d6a0" stroke="#5b4636" stroke-width="2"/><circle cx="66" cy="50" r="12" fill="#06d6a0" stroke="#5b4636" stroke-width="2"/></svg><text x="828" y="1102" text-anchor="middle" font-size="15" fill="#5b4636" font-weight="700">tree</text><rect x="890" y="992" width="96" height="96" rx="22" fill="#fff" stroke="#5b4636" stroke-width="2" opacity="0.7"/><svg x="896" y="998" width="84" height="84" viewBox="0 0 100 100"><title>rabbit</title><path d="M40 36 C36 16 44 14 46 32 Z" fill="#f4e3ef" stroke="#5b4636" stroke-width="2"/><path d="M56 36 C60 16 52 14 50 32 Z" fill="#f4e3ef" stroke="#5b4636" stroke-width="2"/><circle cx="48" cy="54" r="22" fill="#f4e3ef" stroke="#5b4636" stroke-width="3"/><circle cx="41" cy="50" r="3" fill="#5b4636"/><circle cx="55" cy="50" r="3" fill="#5b4636"/><circle cx="36" cy="58" r="3.5" fill="#ffb3a7" opacity="0.8"/><circle cx="60" cy="58" r="3.5" fill="#ffb3a7" opacity="0.8"/><path d="M48 56 c2 0 3 1.4 2 2.6 c-1 1 -3 1 -4 0 c-1 -1.2 0 -2.6 2 -2.6 Z" fill="#e8757f"/></svg><text x="938" y="1102" text-anchor="middle" font-size="15" fill="#5b4636" font-weight="700">rabbit</text><rect x="1000" y="992" width="96" height="96" rx="22" fill="#fff" stroke="#5b4636" stroke-width="2" opacity="0.7"/><svg x="1006" y="998" width="84" height="84" viewBox="0 0 100 100"><title>pond</title><ellipse cx="50" cy="62" rx="34" ry="18" fill="#7cc6fe" stroke="#5b4636" stroke-width="3"/><ellipse cx="50" cy="58" rx="26" ry="11" fill="#bfeaff"/><g fill="none" stroke="#ffffff" stroke-width="2"><path d="M38 60 q4 -3 8 0 t8 0"/></g><circle cx="40" cy="68" r="5" fill="#06d6a0" stroke="#5b4636" stroke-width="2"/></svg><text x="1048" y="1102" text-anchor="middle" font-size="15" fill="#5b4636" font-weight="700">pond</text><rect x="1110" y="992" width="96" height="96" rx="22" fill="#fff" stroke="#5b4636" stroke-width="2" opacity="0.7"/><svg x="1116" y="998" width="84" height="84" viewBox="0 0 100 100"><title>butterflies</title><g fill="#ff8fab" stroke="#5b4636" stroke-width="2"><circle cx="30" cy="36" r="6"/><circle cx="42" cy="36" r="6"/><circle cx="30" cy="45" r="5"/><circle cx="42" cy="45" r="5"/></g><line x1="36" y1="32" x2="36" y2="48" stroke="#5b4636" stroke-width="3"/><g fill="#7cc6fe" stroke="#5b4636" stroke-width="2"><circle cx="58" cy="54" r="6"/><circle cx="70" cy="54" r="6"/><circle cx="58" cy="63" r="5"/><circle cx="70" cy="63" r="5"/></g><line x1="64" y1="50" x2="64" y2="66" stroke="#5b4636" stroke-width="3"/></svg><text x="1158" y="1102" text-anchor="middle" font-size="15" fill="#5b4636" font-weight="700">butterflies</text></svg>