<svg xmlns="http://www.w3.org/2000/svg" width="1200" height="840" viewBox="0 0 1200 840" font-family="'Baloo 2','Comic Sans MS',system-ui,sans-serif"><rect width="1200" height="840" fill="#fef6ec"/><rect width="1200" height="120" fill="#bfeaff"/><text x="40" y="58" font-size="40" font-weight="800" fill="#5b4636">KiddyHub — Bảng phong cách (Style Board)</text><text x="40" y="92" font-size="20" fill="#8a7563">Linh vật Cáo · bảng màu pastel · nút · thẻ · đảo — duyệt LOOK trước khi triển khai B2/B3</text><text x="40" y="162" font-size="24" font-weight="700" fill="#5b4636">Linh vật Cáo — 3 tư thế</text><rect x="62" y="178" width="216" height="216" rx="22" fill="#fff" stroke="#5b4636" stroke-width="2" opacity="0.65"/><svg x="70" y="186" width="200" height="200" viewBox="0 0 100 100"><title>Cáo dẫn đường</title><path d="M24 76 C4 76 0 56 12 46 C19 58 28 64 35 68 Z" fill="#f4762a" stroke="#5b4636" stroke-width="3"/><path d="M12 46 C5 50 4 58 9 63 C15 60 17 53 17 49 Z" fill="#fff3e2" stroke="#5b4636" stroke-width="2"/><path d="M30 92 C26 70 32 56 50 56 C68 56 74 70 70 92 Z" fill="#ff8c42" stroke="#5b4636" stroke-width="3"/><path d="M40 90 C38 74 43 66 50 66 C57 66 62 74 60 90 Z" fill="#fff3e2"/><ellipse cx="41" cy="91" rx="6" ry="4" fill="#f4762a" stroke="#5b4636" stroke-width="2"/><ellipse cx="59" cy="91" rx="6" ry="4" fill="#f4762a" stroke="#5b4636" stroke-width="2"/><path d="M30 66 Q20 74 24 84" fill="none" stroke="#5b4636" stroke-width="11"/><path d="M30 66 Q20 74 24 84" fill="none" stroke="#ff8c42" stroke-width="8"/><circle cx="24" cy="84" r="5.5" fill="#fff3e2" stroke="#5b4636" stroke-width="2"/><path d="M70 66 Q84 52 83 26" fill="none" stroke="#5b4636" stroke-width="11"/><path d="M70 66 Q84 52 83 26" fill="none" stroke="#ff8c42" stroke-width="8"/><circle cx="83" cy="26" r="5.5" fill="#fff3e2" stroke="#5b4636" stroke-width="2"/><path d="M30 30 C26 14 30 9 38 14 C42 18 43 26 42 32 Z" fill="#ff8c42" stroke="#5b4636" stroke-width="3"/><path d="M70 30 C74 14 70 9 62 14 C58 18 57 26 58 32 Z" fill="#ff8c42" stroke="#5b4636" stroke-width="3"/><path d="M33 27 C31 18 33 15 37 18 C39 21 40 25 39 29 Z" fill="#fff3e2"/><path d="M67 27 C69 18 67 15 63 18 C61 21 60 25 61 29 Z" fill="#fff3e2"/><path d="M50 18 C68 18 76 30 76 42 C76 56 64 64 50 64 C36 64 24 56 24 42 C24 30 32 18 50 18 Z" fill="#ff8c42" stroke="#5b4636" stroke-width="3"/><path d="M50 36 C62 36 66 46 64 53 C61 60 55 62 50 62 C45 62 39 60 36 53 C34 46 38 36 50 36 Z" fill="#fff3e2"/><circle cx="35" cy="49" r="4" fill="#ffb3a7" opacity="0.8"/><circle cx="65" cy="49" r="4" fill="#ffb3a7" opacity="0.8"/><circle cx="40" cy="41" r="6.4" fill="#ffffff" stroke="#5b4636" stroke-width="2"/><circle cx="41.6" cy="41.6" r="4" fill="#5b4636"/><circle cx="43" cy="40" r="1.4" fill="#ffffff"/><circle cx="60" cy="41" r="6.4" fill="#ffffff" stroke="#5b4636" stroke-width="2"/><circle cx="61.6" cy="41.6" r="4" fill="#5b4636"/><circle cx="63" cy="40" r="1.4" fill="#ffffff"/><path d="M50 50 C53 50 54 52 53 54 C52 56 48 56 47 54 C46 52 47 50 50 50 Z" fill="#5b4636"/><path d="M44 56 C47 60 53 60 56 56" fill="none" stroke="#5b4636" stroke-width="2"/></svg><text x="170" y="412" text-anchor="middle" font-size="20" fill="#5b4636" font-weight="700">guide (dẫn đường)</text><rect x="322" y="178" width="216" height="216" rx="22" fill="#fff" stroke="#5b4636" stroke-width="2" opacity="0.65"/><svg x="330" y="186" width="200" height="200" viewBox="0 0 100 100"><title>Cáo cổ vũ</title><path d="M22 70 C2 64 -1 44 12 33 C18 47 26 55 33 62 Z" fill="#f4762a" stroke="#5b4636" stroke-width="3"/><path d="M12 33 C5 36 3 44 8 50 C14 47 16 40 16 36 Z" fill="#fff3e2" stroke="#5b4636" stroke-width="2"/><path d="M30 92 C26 70 32 56 50 56 C68 56 74 70 70 92 Z" fill="#ff8c42" stroke="#5b4636" stroke-width="3"/><path d="M40 90 C38 74 43 66 50 66 C57 66 62 74 60 90 Z" fill="#fff3e2"/><ellipse cx="41" cy="91" rx="6" ry="4" fill="#f4762a" stroke="#5b4636" stroke-width="2"/><ellipse cx="59" cy="91" rx="6" ry="4" fill="#f4762a" stroke="#5b4636" stroke-width="2"/><path d="M30 66 Q16 52 20 30" fill="none" stroke="#5b4636" stroke-width="11"/><path d="M30 66 Q16 52 20 30" fill="none" stroke="#ff8c42" stroke-width="8"/><circle cx="20" cy="30" r="5.5" fill="#fff3e2" stroke="#5b4636" stroke-width="2"/><path d="M70 66 Q84 52 80 30" fill="none" stroke="#5b4636" stroke-width="11"/><path d="M70 66 Q84 52 80 30" fill="none" stroke="#ff8c42" stroke-width="8"/><circle cx="80" cy="30" r="5.5" fill="#fff3e2" stroke="#5b4636" stroke-width="2"/><path d="M30 30 C26 14 30 9 38 14 C42 18 43 26 42 32 Z" fill="#ff8c42" stroke="#5b4636" stroke-width="3"/><path d="M70 30 C74 14 70 9 62 14 C58 18 57 26 58 32 Z" fill="#ff8c42" stroke="#5b4636" stroke-width="3"/><path d="M33 27 C31 18 33 15 37 18 C39 21 40 25 39 29 Z" fill="#fff3e2"/><path d="M67 27 C69 18 67 15 63 18 C61 21 60 25 61 29 Z" fill="#fff3e2"/><path d="M50 18 C68 18 76 30 76 42 C76 56 64 64 50 64 C36 64 24 56 24 42 C24 30 32 18 50 18 Z" fill="#ff8c42" stroke="#5b4636" stroke-width="3"/><path d="M50 36 C62 36 66 46 64 53 C61 60 55 62 50 62 C45 62 39 60 36 53 C34 46 38 36 50 36 Z" fill="#fff3e2"/><circle cx="35" cy="49" r="4" fill="#ffb3a7" opacity="0.8"/><circle cx="65" cy="49" r="4" fill="#ffb3a7" opacity="0.8"/><circle cx="40" cy="41" r="6.4" fill="#ffffff" stroke="#5b4636" stroke-width="2"/><circle cx="40" cy="41.6" r="4" fill="#5b4636"/><circle cx="41.4" cy="40" r="1.4" fill="#ffffff"/><circle cx="60" cy="41" r="6.4" fill="#ffffff" stroke="#5b4636" stroke-width="2"/><circle cx="60" cy="41.6" r="4" fill="#5b4636"/><circle cx="61.4" cy="40" r="1.4" fill="#ffffff"/><path d="M50 50 C53 50 54 52 53 54 C52 56 48 56 47 54 C46 52 47 50 50 50 Z" fill="#5b4636"/><path d="M44 56 C47 60 53 60 56 56" fill="none" stroke="#5b4636" stroke-width="2"/><g fill="#fff3e2" stroke="#5b4636" stroke-width="1"><path d="M20 18 L21.4 20.6 L24 22 L21.4 23.4 L20 26 L18.6 23.4 L16 22 L18.6 20.6 Z"/><path d="M80 20 L81.4 22.6 L84 24 L81.4 25.4 L80 28 L78.6 25.4 L76 24 L78.6 22.6 Z"/><path d="M50 2 L51.4 4.6 L54 6 L51.4 7.4 L50 10 L48.6 7.4 L46 6 L48.6 4.6 Z"/></g></svg><text x="430" y="412" text-anchor="middle" font-size="20" fill="#5b4636" font-weight="700">cheer (cổ vũ)</text><rect x="582" y="178" width="216" height="216" rx="22" fill="#fff" stroke="#5b4636" stroke-width="2" opacity="0.65"/><svg x="590" y="186" width="200" height="200" viewBox="0 0 100 100"><title>Cáo</title><path d="M24 76 C4 76 0 56 12 46 C19 58 28 64 35 68 Z" fill="#f4762a" stroke="#5b4636" stroke-width="3"/><path d="M12 46 C5 50 4 58 9 63 C15 60 17 53 17 49 Z" fill="#fff3e2" stroke="#5b4636" stroke-width="2"/><path d="M30 92 C26 70 32 56 50 56 C68 56 74 70 70 92 Z" fill="#ff8c42" stroke="#5b4636" stroke-width="3"/><path d="M40 90 C38 74 43 66 50 66 C57 66 62 74 60 90 Z" fill="#fff3e2"/><ellipse cx="41" cy="91" rx="6" ry="4" fill="#f4762a" stroke="#5b4636" stroke-width="2"/><ellipse cx="59" cy="91" rx="6" ry="4" fill="#f4762a" stroke="#5b4636" stroke-width="2"/><path d="M30 66 Q20 74 24 84" fill="none" stroke="#5b4636" stroke-width="11"/><path d="M30 66 Q20 74 24 84" fill="none" stroke="#ff8c42" stroke-width="8"/><circle cx="24" cy="84" r="5.5" fill="#fff3e2" stroke="#5b4636" stroke-width="2"/><path d="M70 66 Q80 74 76 84" fill="none" stroke="#5b4636" stroke-width="11"/><path d="M70 66 Q80 74 76 84" fill="none" stroke="#ff8c42" stroke-width="8"/><circle cx="76" cy="84" r="5.5" fill="#fff3e2" stroke="#5b4636" stroke-width="2"/><path d="M30 30 C26 14 30 9 38 14 C42 18 43 26 42 32 Z" fill="#ff8c42" stroke="#5b4636" stroke-width="3"/><path d="M70 30 C74 14 70 9 62 14 C58 18 57 26 58 32 Z" fill="#ff8c42" stroke="#5b4636" stroke-width="3"/><path d="M33 27 C31 18 33 15 37 18 C39 21 40 25 39 29 Z" fill="#fff3e2"/><path d="M67 27 C69 18 67 15 63 18 C61 21 60 25 61 29 Z" fill="#fff3e2"/><path d="M50 18 C68 18 76 30 76 42 C76 56 64 64 50 64 C36 64 24 56 24 42 C24 30 32 18 50 18 Z" fill="#ff8c42" stroke="#5b4636" stroke-width="3"/><path d="M50 36 C62 36 66 46 64 53 C61 60 55 62 50 62 C45 62 39 60 36 53 C34 46 38 36 50 36 Z" fill="#fff3e2"/><circle cx="35" cy="49" r="4" fill="#ffb3a7" opacity="0.8"/><circle cx="65" cy="49" r="4" fill="#ffb3a7" opacity="0.8"/><circle cx="40" cy="41" r="6.4" fill="#ffffff" stroke="#5b4636" stroke-width="2"/><circle cx="40" cy="41.6" r="4" fill="#5b4636"/><circle cx="41.4" cy="40" r="1.4" fill="#ffffff"/><circle cx="60" cy="41" r="6.4" fill="#ffffff" stroke="#5b4636" stroke-width="2"/><circle cx="60" cy="41.6" r="4" fill="#5b4636"/><circle cx="61.4" cy="40" r="1.4" fill="#ffffff"/><path d="M50 50 C53 50 54 52 53 54 C52 56 48 56 47 54 C46 52 47 50 50 50 Z" fill="#5b4636"/><path d="M44 56 C47 60 53 60 56 56" fill="none" stroke="#5b4636" stroke-width="2"/></svg><text x="690" y="412" text-anchor="middle" font-size="20" fill="#5b4636" font-weight="700">idle (đứng yên)</text><text x="900" y="162" font-size="24" font-weight="700" fill="#5b4636">Thành phần UI</text><circle cx="960" cy="250" r="50" fill="#7cc6fe" stroke="#5b4636" stroke-width="4"/><ellipse cx="960" cy="214" rx="38" ry="28" fill="#ffffff" opacity="0.22"/><g transform="translate(942,234)" fill="#ffffff" stroke="#5b4636" stroke-width="3" stroke-linejoin="round"><path d="M2 12 L10 12 L20 3 L20 29 L10 20 L2 20 Z"/><path d="M26 8 Q33 16 26 24" fill="none" stroke-linecap="round"/><path d="M30 3 Q41 16 30 29" fill="none" stroke-linecap="round"/></g><text x="960" y="330" text-anchor="middle" font-size="16" fill="#5b4636">Nút 🔊 nghe lại</text><rect x="1050" y="200" width="110" height="110" rx="22" fill="#ffffff" stroke="#5b4636" stroke-width="4"/><rect x="1050" y="200" width="110" height="16" rx="22" fill="#ffd166" opacity="0.55"/><text x="1105" y="273" text-anchor="middle" font-size="52">🦆</text><circle cx="1138" cy="288" r="14" fill="#06d6a0" stroke="#5b4636" stroke-width="3"/><path d="M1131 288 l5 6 l9 -11" fill="none" stroke="#fff" stroke-width="3" stroke-linecap="round" stroke-linejoin="round"/><text x="1105" y="330" text-anchor="middle" font-size="16" fill="#5b4636">Thẻ đáp án</text><text x="40" y="470" font-size="24" font-weight="700" fill="#5b4636">Bảng màu pastel</text><rect x="60" y="490" width="86" height="64" rx="14" fill="#ff8c42" stroke="#5b4636" stroke-width="2"/><text x="103" y="576" text-anchor="middle" font-size="13" fill="#5b4636">primary (Cáo)</text><text x="103" y="592" text-anchor="middle" font-size="11" fill="#8a7563" font-family="monospace">#ff8c42</text><rect x="170" y="490" width="86" height="64" rx="14" fill="#7cc6fe" stroke="#5b4636" stroke-width="2"/><text x="213" y="576" text-anchor="middle" font-size="13" fill="#5b4636">accent</text><text x="213" y="592" text-anchor="middle" font-size="11" fill="#8a7563" font-family="monospace">#7cc6fe</text><rect x="280" y="490" width="86" height="64" rx="14" fill="#ffd166" stroke="#5b4636" stroke-width="2"/><text x="323" y="576" text-anchor="middle" font-size="13" fill="#5b4636">star</text><text x="323" y="592" text-anchor="middle" font-size="11" fill="#8a7563" font-family="monospace">#ffd166</text><rect x="390" y="490" width="86" height="64" rx="14" fill="#06d6a0" stroke="#5b4636" stroke-width="2"/><text x="433" y="576" text-anchor="middle" font-size="13" fill="#5b4636">success</text><text x="433" y="592" text-anchor="middle" font-size="11" fill="#8a7563" font-family="monospace">#06d6a0</text><rect x="500" y="490" width="86" height="64" rx="14" fill="#ff8fab" stroke="#5b4636" stroke-width="2"/><text x="543" y="576" text-anchor="middle" font-size="13" fill="#5b4636">try again</text><text x="543" y="592" text-anchor="middle" font-size="11" fill="#8a7563" font-family="monospace">#ff8fab</text><rect x="610" y="490" width="86" height="64" rx="14" fill="#ff8fab" stroke="#5b4636" stroke-width="2"/><text x="653" y="576" text-anchor="middle" font-size="13" fill="#5b4636">numbers</text><text x="653" y="592" text-anchor="middle" font-size="11" fill="#8a7563" font-family="monospace">#ff8fab</text><rect x="720" y="490" width="86" height="64" rx="14" fill="#7cc6fe" stroke="#5b4636" stroke-width="2"/><text x="763" y="576" text-anchor="middle" font-size="13" fill="#5b4636">letters</text><text x="763" y="592" text-anchor="middle" font-size="11" fill="#8a7563" font-family="monospace">#7cc6fe</text><rect x="830" y="490" width="86" height="64" rx="14" fill="#ffb703" stroke="#5b4636" stroke-width="2"/><text x="873" y="576" text-anchor="middle" font-size="13" fill="#5b4636">logic</text><text x="873" y="592" text-anchor="middle" font-size="11" fill="#8a7563" font-family="monospace">#ffb703</text><rect x="940" y="490" width="86" height="64" rx="14" fill="#b388ff" stroke="#5b4636" stroke-width="2"/><text x="983" y="576" text-anchor="middle" font-size="13" fill="#5b4636">memory</text><text x="983" y="592" text-anchor="middle" font-size="11" fill="#8a7563" font-family="monospace">#b388ff</text><rect x="1050" y="490" width="86" height="64" rx="14" fill="#ff7043" stroke="#5b4636" stroke-width="2"/><text x="1093" y="576" text-anchor="middle" font-size="13" fill="#5b4636">english</text><text x="1093" y="592" text-anchor="middle" font-size="11" fill="#8a7563" font-family="monospace">#ff7043</text><rect x="60" y="650" width="86" height="64" rx="14" fill="#fef6ec" stroke="#5b4636" stroke-width="2"/><text x="103" y="736" text-anchor="middle" font-size="13" fill="#5b4636">background</text><text x="103" y="752" text-anchor="middle" font-size="11" fill="#8a7563" font-family="monospace">#fef6ec</text><rect x="170" y="650" width="86" height="64" rx="14" fill="#5b4636" stroke="#5b4636" stroke-width="2"/><text x="213" y="736" text-anchor="middle" font-size="13" fill="#5b4636">ink</text><text x="213" y="752" text-anchor="middle" font-size="11" fill="#8a7563" font-family="monospace">#5b4636</text><text x="340" y="640" font-size="24" font-weight="700" fill="#5b4636">Đảo mẫu</text><ellipse cx="520" cy="758" rx="84" ry="20" fill="#5b4636" opacity="0.12"/><path d="M444 736 Q436 688 520 680 Q604 688 596 736 Q520 762 444 736 Z" fill="#06d6a0" stroke="#5b4636" stroke-width="4"/><path d="M444 736 Q520 762 596 736 Q520 778 444 736 Z" fill="#ffe08a" stroke="#5b4636" stroke-width="3"/><circle cx="486" cy="712" r="15" fill="#3fbf86" stroke="#5b4636" stroke-width="3"/><circle cx="548" cy="706" r="19" fill="#3fbf86" stroke="#5b4636" stroke-width="3"/><text x="520" y="726" text-anchor="middle" font-size="34">🎨</text></svg>